<svg t="1635405998938" class="icon" viewBox="0 0 1024 1024" version="1.1" xmlns="http://www.w3.org/2000/svg" p-id="44695" width="128" height="128"><path d="M254.9 389.4v0.7c-0.2 42.8-17.8 81.3-45.5 109.4-4 4.5-8.8 8.5-13.5 12.8 4.8 3.3 9.5 7.4 13.5 11.9 27.7 28.1 45.2 66.6 45.5 109.4V847c0 12.6 5.2 23.5 13.5 32.3l1.4 1.2c7.8 7.1 18.7 12.1 30.6 12.1 18.2 0 33.2 15 33.2 33.5 0 18.1-14.9 33.5-33.2 33.5-29.6 0-57.1-11.9-77.5-31.2l-1.6-1.9c-20.1-20-32.9-48.5-32.9-79.6V633.7c-0.5-24.2-10.4-46.1-26.1-62-16.1-15.9-37.9-25.9-61.6-26.4h-1.4c-18 0-33.2-14.8-33.2-32.8 0-18.8 15.2-33.8 33.2-33.8h1.4c23.7-0.5 45.5-10.5 61.6-26.4 15.6-15.7 25.6-37.8 26.1-62.1V177c0-31.2 12.8-59.5 32.9-79.4 20.1-20.7 48.6-33.3 79.1-33.3 18.2 0 33.2 15.2 33.2 33.5s-14.9 33.5-33.2 33.5c-12.6 0-23.9 5.2-32 13.3v-0.2 0.2c-8.3 8.1-13.5 19.5-13.5 32.3v212.5z m126.8 89.2c18.5 0 33.4 15 33.4 33.8 0 18.1-14.9 32.8-33.4 32.8s-33.2-14.8-33.2-32.8c0-18.8 14.7-33.8 33.2-33.8z m130.3 0c18.5 0 33.4 15 33.4 33.8 0 18.1-14.9 32.8-33.4 32.8s-33.2-14.8-33.2-32.8c0-18.8 14.7-33.8 33.2-33.8z m130.3 0c18.5 0 33.4 15 33.4 33.8 0 18.1-14.9 32.8-33.4 32.8-18.2 0-33.2-14.8-33.2-32.8 0-18.8 15-33.8 33.2-33.8z m193.6-89.2v0.7c0.2 24.2 10.2 46.4 25.8 62.1 16.1 15.9 37.9 25.9 61.6 26.4h1.4c18.2 0 33.2 15 33.2 33.8 0 18.1-14.9 32.8-33.2 32.8h-1.4c-23.7 0.5-45.5 10.4-61.6 26.4-15.6 15.9-25.6 37.8-25.8 62V847c0 31.1-12.5 59.7-32.9 79.6l-1.9 1.9c-20.4 19.3-47.4 31.2-77.2 31.2-18.5 0-33.6-15.5-33.6-33.5 0-18.6 15.2-33.5 33.6-33.5 11.8 0 22.8-5 30.8-12.1l0.9-1.2c8.5-8.8 13.7-19.7 13.7-32.3V633.7c0-42.8 17.5-81.3 45.5-109.4 4.3-4.5 8.5-8.5 13.7-11.9-5.2-4.3-9.5-8.3-13.7-12.8-27.9-28.1-45.5-66.6-45.5-109.4V177c0-12.9-5.2-24.2-13.5-32.3v-0.2l-0.2 0.2c-8.1-8.1-19.4-13.3-31.8-13.3-18.5 0-33.6-15.2-33.6-33.5s15.2-33.5 33.6-33.5c30.8 0 58.8 12.6 79.1 33.3 20.4 20 32.9 48.3 32.9 79.4v212.3h0.1z" p-id="44696" data-spm-anchor-id="a313x.7781069.0.i1" class="selected" fill="#515151"></path></svg>
