<svg t="1647518641788" class="icon" viewBox="0 0 1024 1024" version="1.1" xmlns="http://www.w3.org/2000/svg" p-id="1911" width="200" height="200"><path d="M0 249.024h64.704v159.04a106.464 106.464 0 0 1 40.32-36.352c14.016-7.232 30.528-10.752 49.472-10.752 35.968 0 62.656 10.368 80.064 31.232 16.64 20.096 24.96 49.6 24.96 88.576v181.76H194.816v-170.432c0-24.96-4.928-44.096-14.784-57.344-11.328-14.016-27.968-20.992-49.984-20.992-20.416 0-36.352 7.936-47.68 23.808-11.776 15.552-17.664 35.84-17.664 60.8v164.16H0V249.024zM419.712 273.984v94.848h65.344v53.376h-65.344v165.824c0 7.232 1.536 12.544 4.544 15.936 3.456 3.456 8.32 5.056 14.784 5.056h38.592v53.44h-49.408c-25.344 0-44.096-6.784-56.256-20.48-11.328-12.416-16.96-30.336-16.96-53.888v-165.824H302.144v-53.376h52.8v-68.16l64.768-26.752zM625.344 273.984v94.848h65.344v53.376h-65.344v165.824c0 7.232 1.472 12.544 4.544 15.936 3.328 3.456 8.256 5.056 14.72 5.056h38.592v53.44h-49.344c-25.408 0-44.096-6.784-56.256-20.48-11.392-12.416-17.088-30.336-17.088-53.888v-165.824h-52.736v-53.376h52.8v-68.16l64.768-26.752zM989.952 406.912c22.72 28.416 34.048 65.152 34.048 110.208 0 42.816-11.2 78.592-33.536 107.328-23.808 30.72-56.96 46.016-99.392 46.016-34.112 0-63.232-16.064-87.424-48.256v152.768h-64.832v-406.08h60.288v31.232c20.416-26.176 49.984-39.168 88.576-39.168 43.2 0 77.248 15.296 102.272 45.952z m-170.432 36.352c-12.16 17.024-18.176 40.512-18.176 70.4v4.544c0 31.04 7.616 55.808 22.72 74.368 13.632 17.088 30.848 25.536 51.712 25.536 28.352 0 49.6-9.216 63.616-27.84 12.16-17.408 18.176-41.856 18.176-73.28s-5.504-55.808-16.448-73.28c-13.632-20.416-34.624-30.72-63.04-30.72-25.792 0.192-45.312 10.24-58.56 30.272z" p-id="1912"></path></svg>
