<?xml version="1.0" standalone="no"?><!DOCTYPE svg PUBLIC "-//W3C//DTD SVG 1.1//EN" "http://www.w3.org/Graphics/SVG/1.1/DTD/svg11.dtd"><svg t="1625824576678" class="icon" viewBox="0 0 1024 1024" version="1.1" xmlns="http://www.w3.org/2000/svg" p-id="2423" xmlns:xlink="http://www.w3.org/1999/xlink" width="32" height="32"><defs><style type="text/css"></style></defs><path d="M413.417 116.73c28.788 0 46.06 17.465 51.818 46.54 0 23.255-23.03 46.51-46.06 46.51s-46.061-23.255-46.061-46.51c-5.79-23.253 17.273-46.54 40.303-46.54z m570.834 274.862c22.23 95.128 22.23 173.495-5.534 246.233-22.23 67.172-49.995 134.344-138.886 134.344h-88.89v89.53c0 50.38-22.2 111.954-133.321 145.54-44.43 11.163-83.325 16.761-122.19 16.761-38.895 0-77.79-5.598-122.22-16.793-83.325-27.988-133.32-78.367-133.32-145.507v-89.563h-49.996c-77.76 0-127.754-50.347-149.985-139.91-22.23-89.53-22.23-151.105 0-246.233 16.665-83.965 77.76-134.344 166.65-139.91h61.095v-89.562c0-72.738 22.23-123.117 138.886-145.508 88.89-16.793 161.085-11.195 238.876 0 83.326 11.196 138.854 72.77 138.854 145.54v95.128h61.095c66.692 0 116.687 50.347 138.886 139.91zM239.89 637.825c0-89.563 77.76-167.898 172.217-173.496h222.179c49.995 0 88.891-39.151 88.891-89.53V156.522c0-50.347-44.461-83.933-88.891-89.563-72.194-11.163-144.42-11.163-222.18 0-83.325 11.195-88.89 39.216-88.89 89.563v89.562H528.76c16.633 0 27.764 11.196 27.764 27.989s-11.099 27.956-27.764 27.956H212.093c-33.298 0-99.958 16.793-116.623 95.16-22.231 89.563-22.231 139.91 0 223.843 16.633 61.574 44.43 95.16 94.424 95.16h49.995v-78.367z m688.833-16.793c22.199-61.542 22.199-128.714 5.534-218.245-22.199-83.965-61.095-95.16-88.859-95.16h-61.095v72.77c0 78.367-66.692 145.539-144.451 145.539H412.106c-61.095 0-116.656 55.944-116.656 117.487v223.874c0 50.38 49.995 78.368 94.425 89.563 72.226 22.39 138.886 22.39 211.112 0 61.094-16.793 94.425-50.379 94.425-89.563v-89.562H495.43c-16.665 0-27.797-11.196-27.797-27.957 0-16.793 11.132-27.988 27.797-27.988h344.4c44.462 0 61.095-22.39 88.891-100.758zM628.08 907.696c-23.255 0-46.509-23.286-46.509-46.54 0-23.254 23.254-46.509 46.509-46.509s46.54 23.255 46.54 46.509-23.286 46.54-46.54 46.54z" p-id="2424" data-spm-anchor-id="a313x.7781069.0.i0" class="selected" fill="#515151"></path></svg>
