<?xml version="1.0" standalone="no"?><!DOCTYPE svg PUBLIC "-//W3C//DTD SVG 1.1//EN" "http://www.w3.org/Graphics/SVG/1.1/DTD/svg11.dtd"><svg t="1625750595287" class="icon" viewBox="0 0 1024 1024" version="1.1" xmlns="http://www.w3.org/2000/svg" p-id="2650" xmlns:xlink="http://www.w3.org/1999/xlink" width="32" height="32"><defs><style type="text/css"></style></defs><path d="M820.8896 983.04h-634.88l-153.6-153.6 324.3008-494.9504V61.44h291.84v273.0496L972.8 829.44l-151.9104 153.6zM215.04 914.7904h578.56l93.8496-93.9008-305.4592-465.92v-225.28H426.6496v225.28l-305.4592 465.92L215.04 914.7904z" fill="#515151" p-id="2651" data-spm-anchor-id="a313x.7781069.0.i6" class=""></path><path d="M315.7504 61.44H691.2a34.1504 34.1504 0 0 1 0 68.2496H315.7504a34.1504 34.1504 0 0 1 0-68.2496z" fill="#515151" p-id="2652" data-spm-anchor-id="a313x.7781069.0.i7" class=""></path><path d="M315.7504 795.2896H691.2a34.1504 34.1504 0 0 1 0 68.3008H315.7504a34.1504 34.1504 0 0 1 0-68.3008z" fill="#bfbfbf" p-id="2653" data-spm-anchor-id="a313x.7781069.0.i8" class="selected"></path></svg>
